<svg xmlns="http://www.w3.org/2000/svg" id="Layer_1" x="0" y="0" version="1.1" viewBox="0 0 508 508" style="enable-background:new 0 0 508 508" xml:space="preserve"><circle style="fill:#90dfaa" cx="254" cy="254" r="254"/><path style="fill:#fff" d="M254,65.6C150,65.6,65.6,150,65.6,254S150,442.4,254,442.4S442.4,358,442.4,254S358,65.6,254,65.6z M254,391.6c-76,0-137.6-61.6-137.6-137.6S178,116.4,254,116.4S391.6,178,391.6,254S330,391.6,254,391.6z"/><polygon style="fill:#324a5e" points="355.6 187.6 241.6 206.8 332.8 93.6 237.2 96.4 169.6 256.8 245.6 246 188 350.4 167.2 329.6 175.2 399.2 235.6 363.2 210.8 360"/></svg>