<svg xmlns="http://www.w3.org/2000/svg" id="Layer_1" x="0" y="0" version="1.1" viewBox="0 0 508 508" style="enable-background:new 0 0 508 508" xml:space="preserve"><circle style="fill:#ffd05b" cx="254" cy="254" r="254"/><rect x="244.4" y="106.4" style="fill:#f1543f" width="19.6" height="49.6"/><rect x="108" y="244.8" style="fill:#e6e9ee" width="292" height="122"/><g><path style="fill:#fff" d="M108,385.6L108,385.6c-13.2,0-24-10.8-24-24v-112c0-13.2,10.8-24,24-24l0,0c13.2,0,24,10.8,24,24 V362C132,375.2,121.2,385.6,108,385.6z"/><path style="fill:#fff" d="M400,385.6L400,385.6c-13.2,0-24-10.8-24-24v-112c0-13.2,10.8-24,24-24l0,0c13.2,0,24,10.8,24,24 V362C424,375.2,413.2,385.6,400,385.6z"/><path style="fill:#fff" d="M254,393.6L254,393.6c-20.4,0-36.8-16.4-36.8-36.8V183.6c0-20.4,16.4-36.8,36.8-36.8l0,0 c20.4,0,36.8,16.4,36.8,36.8v173.6C290.8,377.2,274.4,393.6,254,393.6z"/></g><path style="fill:#e6e9ee" d="M297.6,205.2h-86c-5.2,0-9.6-4.4-9.6-9.6l0,0c0-5.2,4.4-9.6,9.6-9.6h86c5.2,0,9.6,4.4,9.6,9.6l0,0	C307.6,200.8,303.2,205.2,297.6,205.2z"/><path style="fill:#ff7058" d="M300.4,111.2h-92.8c-4.8,0-8.8-4-8.8-8.8v-2c0-4.8,4-8.8,8.8-8.8H300c4.8,0,8.8,4,8.8,8.8v2	C309.2,107.2,305.2,111.2,300.4,111.2z"/></svg>