<svg xmlns="http://www.w3.org/2000/svg" id="Layer_1" x="0" y="0" version="1.1" viewBox="0 0 508 508" style="enable-background:new 0 0 508 508" xml:space="preserve"><circle style="fill:#90dfaa" cx="254" cy="254" r="254"/><g><ellipse transform="matrix(0.7071 -0.7071 0.7071 0.7071 -105.208 253.9958)" style="fill:#acb3ba" cx="253.996" cy="253.995" rx="207.998" ry="29.6"/><ellipse transform="matrix(0.7071 0.7071 -0.7071 0.7071 253.9957 -105.216)" style="fill:#acb3ba" cx="254.005" cy="253.992" rx="207.998" ry="29.6"/></g><circle style="fill:#e6e9ee" cx="254" cy="254" r="170.4"/><circle style="fill:#324a5e" cx="254" cy="254" r="148.8"/><g><path style="fill:#2b3b4e" d="M254,254L254,254L254,254z"/><path style="fill:#2b3b4e" d="M254,254L254,254L254,254z"/><path style="fill:#2b3b4e" d="M254,254L254,254L254,254z"/><path style="fill:#2b3b4e" d="M254,254L254,254L254,254z"/><path style="fill:#2b3b4e" d="M254,254L254,254L254,254z"/><polygon style="fill:#2b3b4e" points="254 254 254 254 254 254 254 254"/><path style="fill:#2b3b4e" d="M254,254L254,254L254,254z"/><path style="fill:#2b3b4e" d="M254,254L254,254L254,254z"/><path style="fill:#2b3b4e" d="M254,254l26,131.6c16.8-3.2,33.2-10,48.4-20L254,254L254,254z"/><path style="fill:#2b3b4e" d="M179.6,365.6c14.8,10,31.2,16.4,48.4,20L254,254L179.6,365.6z"/><path style="fill:#2b3b4e" d="M122.4,280c3.2,16.8,10,33.2,20,48.4L254,254L122.4,280z"/><path style="fill:#2b3b4e" d="M254,254L254,254L254,254z"/><path style="fill:#2b3b4e" d="M254,254L254,254l111.6,74.4c10-14.8,16.4-31.2,20-48.4L254,254L254,254z"/><path style="fill:#2b3b4e" d="M142.4,179.6c-10,14.8-16.4,31.2-20,48.4L254,254L142.4,179.6z"/><path style="fill:#2b3b4e" d="M254,254L254,254l131.6-26c-3.2-16.8-10-33.2-20-48.4l0,0L254,254L254,254z"/><path style="fill:#2b3b4e" d="M254,254l74.4-111.6c-14.8-10-31.2-16.4-48.4-20L254,254L254,254z"/><path style="fill:#2b3b4e" d="M228,122.4c-16.8,3.2-33.2,10-48.4,20L254,254L228,122.4z"/></g><circle style="fill:#e6e9ee" cx="254" cy="254" r="29.6"/></svg>