<svg xmlns="http://www.w3.org/2000/svg" id="Layer_1" x="0" y="0" version="1.1" viewBox="0 0 24 24" style="enable-background:new 0 0 24 24" xml:space="preserve"><style type="text/css">.st0{fill:none}.st1,.st2{fill-rule:evenodd;clip-rule:evenodd;fill:#46425f}.st2{fill:#fff}</style><title>scan-qr-icon</title><path d="M0,0h24v24H0V0z" class="st0"/><path d="M3,7.6V5c0-1.2,1-2.2,2.2-2.2h4.3v0.8H5.1C4.3,3.6,3.7,4.2,3.7,5v2.6H3z" class="st1"/><path d="M20.3,7.6V5c0-0.8-0.6-1.4-1.4-1.4h-4.3V2.8h4.3c1.2,0,2.2,1,2.2,2.2v2.6H20.3z" class="st1"/><path d="M14.6,21.2v-0.8h4.3c0.8,0,1.4-0.6,1.4-1.4v-4.1H21V19c0,1.2-1,2.2-2.2,2.2H14.6z" class="st1"/><path d="M5.2,21.2C4,21.2,3,20.2,3,19v-4.1h0.7V19c0,0.8,0.6,1.4,1.4,1.4h4.3v0.8C9.4,21.2,5.2,21.2,5.2,21.2z" class="st1"/><g><path d="M10.2,10.3H7.9V8h2.3V10.3z M6.9,7v4.3h4.3V7H6.9z" class="st2"/><path d="M10.2,16H7.9v-2.3h2.3V16z M6.9,12.7V17h4.3v-4.3H6.9z" class="st2"/><path d="M16.1,10.3h-2.3V8h2.3V10.3z M12.8,7v4.3h4.3V7H12.8z" class="st2"/><rect width="1.9" height=".8" x="13.9" y="12.9" class="st2"/><rect width=".8" height=".3" x="14.4" y="14" class="st2"/><rect width=".8" height="1.9" x="12.8" y="14" class="st2"/><polygon points="16.2 15.1 16.2 16 15.3 16 15.3 17 16.2 17 17.1 17 17.1 15.1" class="st2"/></g></svg>